<svg width="306" height="120" viewBox="0 0 36 12" fill="none" xmlns="http://www.w3.org/2000/svg">
    <path d="M0.244 1.072L1.12 0.651999L2.14 2.692L1.516 2.98L0.244 1.072ZM12.8393 2.944H12.7793L12.0713 4.348L10.0673 7.996L8.06331 4.348L7.35531 2.944H7.29531V10H6.31131V1.624H7.65531L10.0553 6.136H10.1153L12.5273 1.624H13.8233V10H12.8393V2.944ZM16.0496 11.656V0.879999H18.0176V1.636H16.8776V10.9H18.0176V11.656H16.0496ZM22.9902 10.144C22.4462 10.144 21.9542 10.052 21.5142 9.868C21.0822 9.676 20.7102 9.4 20.3982 9.04C20.0942 8.672 19.8582 8.22 19.6902 7.684C19.5222 7.14 19.4382 6.516 19.4382 5.812C19.4382 5.108 19.5222 4.488 19.6902 3.952C19.8582 3.416 20.0942 2.964 20.3982 2.596C20.7102 2.228 21.0822 1.952 21.5142 1.768C21.9542 1.576 22.4462 1.48 22.9902 1.48C23.5262 1.48 24.0142 1.576 24.4542 1.768C24.8942 1.952 25.2662 2.228 25.5702 2.596C25.8822 2.964 26.1222 3.416 26.2902 3.952C26.4582 4.488 26.5422 5.108 26.5422 5.812C26.5422 6.516 26.4582 7.14 26.2902 7.684C26.1222 8.22 25.8822 8.672 25.5702 9.04C25.2662 9.4 24.8942 9.676 24.4542 9.868C24.0142 10.052 23.5262 10.144 22.9902 10.144ZM22.9902 9.244C23.3502 9.244 23.6822 9.18 23.9862 9.052C24.2902 8.924 24.5502 8.74 24.7662 8.5C24.9902 8.26 25.1622 7.972 25.2822 7.636C25.4022 7.3 25.4622 6.924 25.4622 6.508V5.116C25.4622 4.7 25.4022 4.324 25.2822 3.988C25.1622 3.652 24.9902 3.364 24.7662 3.124C24.5502 2.884 24.2902 2.7 23.9862 2.572C23.6822 2.444 23.3502 2.38 22.9902 2.38C22.6302 2.38 22.2982 2.444 21.9942 2.572C21.6902 2.7 21.4262 2.884 21.2022 3.124C20.9862 3.364 20.8182 3.652 20.6982 3.988C20.5782 4.324 20.5182 4.7 20.5182 5.116V6.508C20.5182 6.924 20.5782 7.3 20.6982 7.636C20.8182 7.972 20.9862 8.26 21.2022 8.5C21.4262 8.74 21.6902 8.924 21.9942 9.052C22.2982 9.18 22.6302 9.244 22.9902 9.244ZM29.9263 0.879999V11.656H27.9583V10.9H29.0983V1.636H27.9583V0.879999H29.9263ZM33.2909 1.072L34.1669 0.651999L35.1869 2.692L34.5629 2.98L33.2909 1.072Z" fill="black"/>
</svg>
