<svg xmlns="http://www.w3.org/2000/svg">
    <g id="icon-showcase" fill="currentColor">
        <path d="M22 26H10a2 2 0 01-2-2V8a2 2 0 012-2H22a2 2 0 012 2V24A2 2 0 0122 26zM10 8V24H22V8zM4 24H0V22H4V10H0V8H4a2 2 0 012 2V22A2 2 0 014 24zM32 24H28a2 2 0 01-2-2V10a2 2 0 012-2h4v2H28V22h4z"></path>
    </g>
    <g id="icon-collab" fill="currentColor">
        <path d="M28,10H22V4a2.0025,2.0025,0,0,0-2-2H4A2.0025,2.0025,0,0,0,2,4V20a2.0025,2.0025,0,0,0,2,2h6v6a2.0025,2.0025,0,0,0,2,2H28a2.0025,2.0025,0,0,0,2-2V12A2.0025,2.0025,0,0,0,28,10ZM4,20V4h6V20Zm18,8V12h6V28Z"></path>
    </g>
    <g id="icon-talk" fill="currentColor">
        <path d="M17.74,30,16,29l4-7h6a2,2,0,0,0,2-2V8a2,2,0,0,0-2-2H6A2,2,0,0,0,4,8V20a2,2,0,0,0,2,2h9v2H6a4,4,0,0,1-4-4V8A4,4,0,0,1,6,4H26a4,4,0,0,1,4,4V20a4,4,0,0,1-4,4H21.16Z"></path>
        <path d="M8 10H24V12H8zM8 16H18V18H8z"></path>
    </g>
    <g id="icon-resume" fill="currentColor">
        <path d="M16 22a4 4 0 10-4-4A4 4 0 0016 22zm0-6a2 2 0 11-2 2A2 2 0 0116 16zM14 6H18V8H14z"></path>
        <path d="M24,2H8A2.002,2.002,0,0,0,6,4V28a2.0023,2.0023,0,0,0,2,2H24a2.0027,2.0027,0,0,0,2-2V4A2.0023,2.0023,0,0,0,24,2ZM20,28H12V26a1,1,0,0,1,1-1h6a1,1,0,0,1,1,1Zm2,0V26a3,3,0,0,0-3-3H13a3,3,0,0,0-3,3v2H8V4H24V28Z"></path>
    </g>
</svg>