<svg xmlns="http://www.w3.org/2000/svg">
    <g id="icon-showcase" fill="currentColor">
        <path d="M22 26H10a2 2 0 01-2-2V8a2 2 0 012-2H22a2 2 0 012 2V24A2 2 0 0122 26zM10 8V24H22V8zM4 24H0V22H4V10H0V8H4a2 2 0 012 2V22A2 2 0 014 24zM32 24H28a2 2 0 01-2-2V10a2 2 0 012-2h4v2H28V22h4z"></path>
    </g>
    <g id="icon-collab" fill="currentColor">
        <path d="M28,10H22V4a2.0025,2.0025,0,0,0-2-2H4A2.0025,2.0025,0,0,0,2,4V20a2.0025,2.0025,0,0,0,2,2h6v6a2.0025,2.0025,0,0,0,2,2H28a2.0025,2.0025,0,0,0,2-2V12A2.0025,2.0025,0,0,0,28,10ZM4,20V4h6V20Zm18,8V12h6V28Z"></path>
    </g>
    <g id="icon-talk" fill="currentColor">
        <path d="M17.74,30,16,29l4-7h6a2,2,0,0,0,2-2V8a2,2,0,0,0-2-2H6A2,2,0,0,0,4,8V20a2,2,0,0,0,2,2h9v2H6a4,4,0,0,1-4-4V8A4,4,0,0,1,6,4H26a4,4,0,0,1,4,4V20a4,4,0,0,1-4,4H21.16Z"></path>
        <path d="M8 10H24V12H8zM8 16H18V18H8z"></path>
    </g>
    <g id="icon-resume" fill="currentColor">
        <path d="M16 22a4 4 0 10-4-4A4 4 0 0016 22zm0-6a2 2 0 11-2 2A2 2 0 0116 16zM14 6H18V8H14z"></path>
        <path d="M24,2H8A2.002,2.002,0,0,0,6,4V28a2.0023,2.0023,0,0,0,2,2H24a2.0027,2.0027,0,0,0,2-2V4A2.0023,2.0023,0,0,0,24,2ZM20,28H12V26a1,1,0,0,1,1-1h6a1,1,0,0,1,1,1Zm2,0V26a3,3,0,0,0-3-3H13a3,3,0,0,0-3,3v2H8V4H24V28Z"></path>
    </g>
    <g id="icon-info" fill="currentColor">
        <path d="M17 22L17 14 13 14 13 16 15 16 15 22 12 22 12 24 20 24 20 22 17 22zM16 8a1.5 1.5 0 101.5 1.5A1.5 1.5 0 0016 8z" />
        <path d="M16,30A14,14,0,1,1,30,16,14,14,0,0,1,16,30ZM16,4A12,12,0,1,0,28,16,12,12,0,0,0,16,4Z" />
    </g>

    <g id="icon-github" fill="currentColor">
        <path fill-rule="evenodd" d="M16,2a14,14,0,0,0-4.43,27.28c.7.13,1-.3,1-.67s0-1.21,0-2.38c-3.89.84-4.71-1.88-4.71-1.88A3.71,3.71,0,0,0,6.24,22.3c-1.27-.86.1-.85.1-.85A2.94,2.94,0,0,1,8.48,22.9a3,3,0,0,0,4.08,1.16,2.93,2.93,0,0,1,.88-1.87c-3.1-.36-6.37-1.56-6.37-6.92a5.4,5.4,0,0,1,1.44-3.76,5,5,0,0,1,.14-3.7s1.17-.38,3.85,1.43a13.3,13.3,0,0,1,7,0c2.67-1.81,3.84-1.43,3.84-1.43a5,5,0,0,1,.14,3.7,5.4,5.4,0,0,1,1.44,3.76c0,5.38-3.27,6.56-6.39,6.91a3.33,3.33,0,0,1,.95,2.59c0,1.87,0,3.38,0,3.84s.25.81,1,.67A14,14,0,0,0,16,2Z" />
    </g>

    <g id="icon-instagram" fill="currentColor">
        <circle cx="22.406" cy="9.594" r="1.44"></circle>
        <path d="M16,9.8378A6.1622,6.1622,0,1,0,22.1622,16,6.1622,6.1622,0,0,0,16,9.8378ZM16,20a4,4,0,1,1,4-4A4,4,0,0,1,16,20Z" />
        <path d="M16,6.1622c3.2041,0,3.5837.0122,4.849.07a6.6418,6.6418,0,0,1,2.2283.4132,3.9748,3.9748,0,0,1,2.2774,2.2774,6.6418,6.6418,0,0,1,.4132,2.2283c.0577,1.2653.07,1.6449.07,4.849s-.0122,3.5837-.07,4.849a6.6418,6.6418,0,0,1-.4132,2.2283,3.9748,3.9748,0,0,1-2.2774,2.2774,6.6418,6.6418,0,0,1-2.2283.4132c-1.2652.0577-1.6446.07-4.849.07s-3.5838-.0122-4.849-.07a6.6418,6.6418,0,0,1-2.2283-.4132,3.9748,3.9748,0,0,1-2.2774-2.2774,6.6418,6.6418,0,0,1-.4132-2.2283c-.0577-1.2653-.07-1.6449-.07-4.849s.0122-3.5837.07-4.849a6.6418,6.6418,0,0,1,.4132-2.2283A3.9748,3.9748,0,0,1,8.9227,6.6453a6.6418,6.6418,0,0,1,2.2283-.4132c1.2653-.0577,1.6449-.07,4.849-.07M16,4c-3.259,0-3.6677.0138-4.9476.0722A8.8068,8.8068,0,0,0,8.14,4.63,6.1363,6.1363,0,0,0,4.63,8.14a8.8068,8.8068,0,0,0-.5578,2.9129C4.0138,12.3323,4,12.741,4,16s.0138,3.6677.0722,4.9476A8.8074,8.8074,0,0,0,4.63,23.8605a6.1363,6.1363,0,0,0,3.51,3.51,8.8068,8.8068,0,0,0,2.9129.5578C12.3323,27.9862,12.741,28,16,28s3.6677-.0138,4.9476-.0722a8.8074,8.8074,0,0,0,2.9129-.5578,6.1363,6.1363,0,0,0,3.51-3.51,8.8074,8.8074,0,0,0,.5578-2.9129C27.9862,19.6677,28,19.259,28,16s-.0138-3.6677-.0722-4.9476A8.8068,8.8068,0,0,0,27.37,8.14a6.1363,6.1363,0,0,0-3.51-3.5095,8.8074,8.8074,0,0,0-2.9129-.5578C19.6677,4.0138,19.259,4,16,4Z" />
    </g>
    
    <g id="icon-twitter" fill="currentColor">
        <path d="M11.5475,25.7523c9.0566,0,14.0102-7.5034,14.0102-14.0102,0-.2131,0-.4253-.0144-.6365,.9637-.697,1.7955-1.5601,2.4566-2.5488-.8987,.3982-1.852,.6594-2.8282,.7747,1.0279-.6154,1.7972-1.5833,2.1648-2.7235-.9666,.5736-2.024,.9778-3.1267,1.1952-1.8648-1.9829-4.984-2.0786-6.9669-.2138-1.2788,1.2026-1.8214,2.9947-1.4245,4.7047-3.9591-.1985-7.6479-2.0685-10.1482-5.1446-1.3069,2.2499-.6394,5.1282,1.5245,6.5731-.7836-.0232-1.5501-.2346-2.2349-.6163v.0624c.0006,2.3439,1.6529,4.3628,3.9504,4.8269-.7249,.1977-1.4855,.2266-2.2234,.0845,.6451,2.0058,2.4937,3.38,4.6003,3.4195-1.7436,1.3703-3.8975,2.1142-6.1152,2.112-.3918-.0008-.7832-.0245-1.1722-.071,2.2518,1.4451,4.8719,2.2116,7.5475,2.208" />
    </g>
    <g id="icon-mail" fill="currentColor">
        <path d="M28,6H4A2,2,0,0,0,2,8V24a2,2,0,0,0,2,2H28a2,2,0,0,0,2-2V8A2,2,0,0,0,28,6ZM25.8,8,16,14.78,6.2,8ZM4,24V8.91l11.43,7.91a1,1,0,0,0,1.14,0L28,8.91V24Z" />
    </g>

    <g id="icon-arrow-top-right" fill="currentColor">
        <path d="M10 6L10 8 22.59 8 6 24.59 7.41 26 24 9.41 24 22 26 22 26 6 10 6z" />
    </g>
</svg>